<svg width="15" height="18" viewBox="0 0 15 18" fill="none" xmlns="http://www.w3.org/2000/svg">
<path d="M12.2799 9.28963C12.2799 7.10807 14.0524 6.01729 14.1888 5.94912C13.1661 4.4493 11.53 4.24478 10.9846 4.24478C9.62112 4.10843 8.32582 5.06286 7.64408 5.06286C6.96234 5.06286 5.87157 4.24478 4.78079 4.31295C3.34914 4.31295 1.98567 5.19921 1.23576 6.49451C-0.332238 9.15328 0.826714 13.1074 2.32653 15.2889C3.07645 16.3797 3.9627 17.5386 5.05348 17.4705C6.14426 17.4023 6.5533 16.7887 7.91678 16.7887C9.21208 16.7887 9.62112 17.4705 10.7801 17.4705C11.939 17.4705 12.6889 16.3797 13.4388 15.3571C14.3251 14.13 14.666 12.971 14.666 12.9028C14.5978 12.7665 12.3481 11.8802 12.2799 9.28963Z" fill="#F9FAFC"/>
<path d="M10.0985 2.81367C10.7121 2.06376 11.1211 1.04116 10.9848 0.0185547C10.0985 0.0867283 9.0759 0.632118 8.39417 1.31385C7.84878 1.92742 7.37156 3.0182 7.50791 3.97263C8.53051 4.10897 9.48494 3.56358 10.0985 2.81367Z" fill="#F9FAFC"/>
</svg>
