<svg width="13" height="12" viewBox="0 0 13 12" fill="none" xmlns="http://www.w3.org/2000/svg">
<path d="M11.744 3.39799C11.7518 3.51625 11.7518 3.63454 11.7518 3.75281C11.7518 7.36003 9.23504 11.5164 4.63516 11.5164C3.21802 11.5164 1.90157 11.0686 0.794189 10.2915C0.995538 10.3168 1.18912 10.3253 1.39821 10.3253C2.56752 10.3253 3.64394 9.89443 4.50351 9.15946C3.40388 9.13411 2.48235 8.34846 2.16485 7.26712C2.31974 7.29245 2.4746 7.30935 2.63724 7.30935C2.86181 7.30935 3.0864 7.27555 3.29547 7.21644C2.14938 6.96298 1.28978 5.86477 1.28978 4.53846V4.50468C1.62275 4.70743 2.00998 4.83414 2.42038 4.85102C1.74666 4.36103 1.30527 3.5247 1.30527 2.57853C1.30527 2.07167 1.42915 1.60704 1.64599 1.20154C2.87728 2.85732 4.72808 3.93863 6.80342 4.05692C6.76471 3.85417 6.74147 3.64299 6.74147 3.43179C6.74147 1.92805 7.85659 0.703125 9.24274 0.703125C9.96292 0.703125 10.6134 1.03259 11.0703 1.56481C11.6356 1.44654 12.1777 1.21844 12.6578 0.905876C12.4719 1.53948 12.077 2.0717 11.5582 2.40959C12.0615 2.35048 12.5494 2.19839 12.9985 1.98721C12.6578 2.52785 12.2319 3.00936 11.744 3.39799Z" fill="#4E4E4E" fill-opacity="0.45"/>
</svg>
