<svg width="697" height="587" viewBox="0 0 697 587" fill="none" xmlns="http://www.w3.org/2000/svg">
<g opacity="0.4">
<path d="M297.528 254.078L174.625 587L-140.828 -266.13C-141.919 -269.165 -142.255 -272.413 -141.808 -275.602C-141.36 -278.791 -140.143 -281.828 -138.257 -284.459C-136.372 -287.09 -133.873 -289.239 -130.971 -290.725C-128.068 -292.211 -124.846 -292.991 -121.573 -293H81.2179C85.444 -292.988 89.563 -291.691 93.0102 -289.285C96.4574 -286.88 99.0641 -283.485 100.473 -279.565L297.528 254.078Z" fill="white"/>
<path d="M420.636 587H174.35L297.527 254.078L420.636 587Z" fill="white"/>
<path d="M333.712 156.001L297.524 254.078L420.428 587L643.976 -17.5804C645.067 -20.6156 645.402 -23.8633 644.955 -27.0524C644.508 -30.2415 643.291 -33.2787 641.405 -35.9098C639.52 -38.5409 637.021 -40.6896 634.118 -42.1755C631.215 -43.6614 627.993 -44.4416 624.721 -44.4506C561.182 -44.3993 499.194 -25.1445 447.144 10.708C395.095 46.5605 355.498 97.2799 333.712 156.001Z" fill="white"/>
<path d="M580.476 -64.6702C644.395 -64.6702 696.211 -115.648 696.211 -178.533C696.211 -241.417 644.395 -292.395 580.476 -292.395C516.558 -292.395 464.742 -241.417 464.742 -178.533C464.742 -115.648 516.558 -64.6702 580.476 -64.6702Z" fill="white"/>
</g>
</svg>
