<svg width="729" height="587" viewBox="0 0 729 587" fill="none" xmlns="http://www.w3.org/2000/svg">
<g opacity="0.4">
<path d="M329.528 254.078L206.625 587L-108.828 -266.13C-109.919 -269.165 -110.255 -272.413 -109.808 -275.602C-109.36 -278.791 -108.143 -281.828 -106.257 -284.459C-104.372 -287.09 -101.873 -289.239 -98.9707 -290.725C-96.0679 -292.211 -92.8456 -292.991 -89.5734 -293H113.218C117.444 -292.988 121.563 -291.691 125.01 -289.285C128.457 -286.88 131.064 -283.485 132.473 -279.565L329.528 254.078Z" fill="white"/>
<path d="M452.636 587H206.35L329.527 254.078L452.636 587Z" fill="white"/>
<path d="M365.712 156.001L329.524 254.078L452.428 587L675.976 -17.5804C677.067 -20.6156 677.402 -23.8633 676.955 -27.0524C676.508 -30.2415 675.291 -33.2787 673.405 -35.9098C671.52 -38.5409 669.021 -40.6896 666.118 -42.1755C663.215 -43.6614 659.993 -44.4416 656.721 -44.4506C593.182 -44.3993 531.194 -25.1445 479.144 10.708C427.095 46.5605 387.498 97.2799 365.712 156.001Z" fill="white"/>
<path d="M612.476 -64.6702C676.395 -64.6702 728.211 -115.648 728.211 -178.533C728.211 -241.417 676.395 -292.395 612.476 -292.395C548.558 -292.395 496.742 -241.417 496.742 -178.533C496.742 -115.648 548.558 -64.6702 612.476 -64.6702Z" fill="white"/>
</g>
</svg>
