<svg width="771" height="587" viewBox="0 0 771 587" fill="none" xmlns="http://www.w3.org/2000/svg">
<g opacity="0.4">
<path d="M439.528 254.078L316.625 587L158.898 160.435L1.1716 -266.13C0.0808589 -269.165 -0.255022 -272.413 0.192243 -275.602C0.639508 -278.791 1.85708 -281.828 3.74251 -284.459C5.62795 -287.09 8.12658 -289.239 11.0293 -290.725C13.9321 -292.211 17.1544 -292.991 20.4266 -293H223.218C227.444 -292.988 231.563 -291.691 235.01 -289.285C238.457 -286.88 241.064 -283.485 242.473 -279.565L439.528 254.078Z" fill="white"/>
<path d="M562.636 587H316.35L439.527 254.078L562.636 587Z" fill="white"/>
<path d="M475.712 156.001L439.524 254.078L562.428 587L785.976 -17.5804C787.067 -20.6156 787.402 -23.8633 786.955 -27.0524C786.508 -30.2415 785.291 -33.2787 783.405 -35.9098C781.52 -38.5409 779.021 -40.6896 776.118 -42.1755C773.215 -43.6614 769.993 -44.4416 766.721 -44.4506C703.182 -44.3993 641.194 -25.1445 589.144 10.708C537.095 46.5605 497.498 97.2799 475.712 156.001Z" fill="white"/>
<path d="M722.476 -64.6702C786.395 -64.6702 838.211 -115.648 838.211 -178.533C838.211 -241.417 786.395 -292.395 722.476 -292.395C658.558 -292.395 606.742 -241.417 606.742 -178.533C606.742 -115.648 658.558 -64.6702 722.476 -64.6702Z" fill="white"/>
</g>
</svg>
