<svg width="17" height="19" viewBox="0 0 17 19" fill="none" xmlns="http://www.w3.org/2000/svg">
<path d="M0.418192 0.554443C0.209464 0.763171 0.0703125 1.11105 0.0703125 1.5285V16.7656C0.0703125 17.1831 0.209464 17.531 0.418192 17.7397L0.487768 17.8093L9.11518 9.25143V9.0427L0.418192 0.554443Z" fill="url(#paint0_linear_1_1498)"/>
<path d="M11.9698 12.1044L9.11719 9.25177V9.04304L11.9698 6.19043L12.0394 6.26L15.4486 8.20813C16.4227 8.76474 16.4227 9.66923 15.4486 10.2258L11.9698 12.1044C12.0394 12.1044 11.9698 12.1044 11.9698 12.1044Z" fill="url(#paint1_linear_1_1498)"/>
<path d="M12.0371 12.1038L9.11495 9.18164L0.417969 17.7395C0.765848 18.0874 1.25288 18.0873 1.87906 17.809L12.0371 12.1038Z" fill="url(#paint2_linear_1_1498)"/>
<path d="M12.0371 6.26011L1.87906 0.554886C1.25288 0.207007 0.765848 0.276581 0.417969 0.624461L9.11495 9.1823L12.0371 6.26011Z" fill="url(#paint3_linear_1_1498)"/>
<defs>
<linearGradient id="paint0_linear_1_1498" x1="8.33615" y1="16.9194" x2="-3.23096" y2="5.21558" gradientUnits="userSpaceOnUse">
<stop stop-color="#00A0FF"/>
<stop offset="0.0066" stop-color="#00A1FF"/>
<stop offset="0.2601" stop-color="#00BEFF"/>
<stop offset="0.5122" stop-color="#00D2FF"/>
<stop offset="0.7604" stop-color="#00DFFF"/>
<stop offset="1" stop-color="#00E3FF"/>
</linearGradient>
<linearGradient id="paint1_linear_1_1498" x1="16.7118" y1="9.14737" x2="-0.163771" y2="9.14737" gradientUnits="userSpaceOnUse">
<stop stop-color="#FFE000"/>
<stop offset="0.4087" stop-color="#FFBD00"/>
<stop offset="0.7754" stop-color="#FFA500"/>
<stop offset="1" stop-color="#FF9C00"/>
</linearGradient>
<linearGradient id="paint2_linear_1_1498" x1="4.61878" y1="13.3146" x2="-11.0672" y2="-2.5566" gradientUnits="userSpaceOnUse">
<stop stop-color="#FF3A44"/>
<stop offset="1" stop-color="#C31162"/>
</linearGradient>
<linearGradient id="paint3_linear_1_1498" x1="-7.58065" y1="17.1062" x2="-0.576168" y2="10.019" gradientUnits="userSpaceOnUse">
<stop stop-color="#32A071"/>
<stop offset="0.0685" stop-color="#2DA771"/>
<stop offset="0.4762" stop-color="#15CF74"/>
<stop offset="0.8009" stop-color="#06E775"/>
<stop offset="1" stop-color="#00F076"/>
</linearGradient>
</defs>
</svg>
