<svg width="13" height="13" viewBox="0 0 13 13" fill="none" xmlns="http://www.w3.org/2000/svg">
<path d="M6.75174 2.97998C5.02012 2.97998 3.62339 4.37702 3.62339 6.10903C3.62339 7.84103 5.02012 9.23807 6.75174 9.23807C8.48336 9.23807 9.8801 7.84103 9.8801 6.10903C9.8801 4.37702 8.48336 2.97998 6.75174 2.97998ZM6.75174 8.14332C5.63273 8.14332 4.71791 7.23102 4.71791 6.10903C4.71791 4.98703 5.63 4.07474 6.75174 4.07474C7.87349 4.07474 8.78558 4.98703 8.78558 6.10903C8.78558 7.23102 7.87076 8.14332 6.75174 8.14332ZM10.7377 2.85198C10.7377 3.25775 10.411 3.58182 10.0081 3.58182C9.60238 3.58182 9.27839 3.25503 9.27839 2.85198C9.27839 2.44894 9.60511 2.12214 10.0081 2.12214C10.411 2.12214 10.7377 2.44894 10.7377 2.85198ZM12.8097 3.59272C12.7634 2.61506 12.5401 1.74905 11.8241 1.03556C11.1107 0.322056 10.2449 0.0987466 9.26749 0.0497276C8.26011 -0.00746128 5.24066 -0.00746128 4.23327 0.0497276C3.25856 0.0960234 2.39275 0.319332 1.67668 1.03283C0.96062 1.74633 0.740084 2.61233 0.691075 3.58999C0.633899 4.59761 0.633899 7.61772 0.691075 8.62534C0.737361 9.60299 0.96062 10.469 1.67668 11.1825C2.39275 11.896 3.25583 12.1193 4.23327 12.1683C5.24066 12.2255 8.26011 12.2255 9.26749 12.1683C10.2449 12.122 11.1107 11.8987 11.8241 11.1825C12.5374 10.469 12.7607 9.60299 12.8097 8.62534C12.8669 7.61772 12.8669 4.60033 12.8097 3.59272ZM11.5083 9.70648C11.2959 10.2402 10.8848 10.6515 10.3484 10.8666C9.54521 11.1852 7.63934 11.1117 6.75174 11.1117C5.86415 11.1117 3.95556 11.1825 3.15509 10.8666C2.62145 10.6542 2.21033 10.243 1.99524 9.70648C1.67668 8.90311 1.7502 6.99682 1.7502 6.10903C1.7502 5.22124 1.67941 3.31222 1.99524 2.51157C2.2076 1.97781 2.61873 1.56659 3.15509 1.35146C3.95828 1.03283 5.86415 1.10636 6.75174 1.10636C7.63934 1.10636 9.54793 1.03555 10.3484 1.35146C10.882 1.56387 11.2932 1.97509 11.5083 2.51157C11.8268 3.31494 11.7533 5.22124 11.7533 6.10903C11.7533 6.99682 11.8268 8.90583 11.5083 9.70648Z" fill="#4E4E4E" fill-opacity="0.45"/>
</svg>
