<svg width="14" height="14" viewBox="0 0 14 14" fill="none" xmlns="http://www.w3.org/2000/svg">
<path d="M12.538 0.729675H1.12319C0.600145 0.729675 0.175171 1.14264 0.175171 1.64959V12.5689C0.175171 13.0758 0.600145 13.4888 1.12319 13.4888H12.538C13.0611 13.4888 13.489 13.0758 13.489 12.5689V1.64959C13.489 1.14264 13.0611 0.729675 12.538 0.729675ZM4.19905 11.6661H2.22574V5.577H4.20202V11.6661H4.19905ZM3.2124 4.74538C2.57939 4.74538 2.06824 4.25267 2.06824 3.64889C2.06824 3.04511 2.57939 2.55241 3.2124 2.55241C3.84243 2.55241 4.35656 3.04511 4.35656 3.64889C4.35656 4.25552 3.8454 4.74538 3.2124 4.74538ZM11.596 11.6661H9.62267V8.70413C9.62267 7.99782 9.60781 7.0893 8.59738 7.0893C7.56912 7.0893 7.41162 7.85827 7.41162 8.65286V11.6661H5.43831V5.577H7.33138V6.40862H7.35812C7.62262 5.93016 8.26751 5.42606 9.22741 5.42606C11.2245 5.42606 11.596 6.68773 11.596 8.32819V11.6661Z" fill="#0077FF"/>
</svg>
