<svg width="815" height="706" viewBox="0 0 815 706" fill="none" xmlns="http://www.w3.org/2000/svg">
<g opacity="0.1">
<path d="M439.528 373.078L316.625 706L1.1716 -147.13C0.0808589 -150.165 -0.255022 -153.413 0.192243 -156.602C0.639508 -159.791 1.85708 -162.828 3.74251 -165.459C5.62795 -168.09 8.12657 -170.239 11.0293 -171.725C13.9321 -173.211 17.1544 -173.991 20.4266 -174H223.218C227.444 -173.988 231.563 -172.691 235.01 -170.285C238.457 -167.88 241.064 -164.485 242.473 -160.565L439.528 373.078Z" fill="#007BFF"/>
<path d="M562.637 706H316.352L439.528 373.078L562.637 706Z" fill="#E57A1A"/>
<path d="M475.712 275.001L439.524 373.078L562.428 706L785.976 101.42C787.067 98.3844 787.402 95.1366 786.955 91.9476C786.508 88.7585 785.291 85.7213 783.405 83.0902C781.52 80.4591 779.021 78.3104 776.118 76.8244C773.215 75.3385 769.993 74.5584 766.721 74.5493C703.182 74.6006 641.194 93.8555 589.145 129.708C537.095 165.561 497.498 216.28 475.712 275.001Z" fill="#F0A75A"/>
<path d="M698.363 77.7252C762.282 77.7252 814.098 26.7472 814.098 -36.1374C814.098 -99.022 762.282 -150 698.363 -150C634.445 -150 582.629 -99.022 582.629 -36.1374C582.629 26.7472 634.445 77.7252 698.363 77.7252Z" fill="#E57A1A"/>
</g>
</svg>
